<svg width="1920" height="1209" viewBox="0 0 1920 1209" fill="none" xmlns="http://www.w3.org/2000/svg">
<rect width="1920" height="1209" fill="url(#paint0_linear_17871_28)"/>
<circle cx="942.439" cy="691.722" r="3.52358" transform="rotate(90 942.439 691.722)" fill="#70C217"/>
<circle cx="942.439" cy="743.401" r="3.52358" transform="rotate(90 942.439 743.401)" fill="#70C217"/>
<circle cx="942.439" cy="795.08" r="3.52358" transform="rotate(90 942.439 795.08)" fill="#70C217"/>
<circle cx="942.439" cy="846.759" r="3.52358" transform="rotate(90 942.439 846.759)" fill="#70C217"/>
<circle cx="942.439" cy="898.438" r="3.52358" transform="rotate(90 942.439 898.438)" fill="#70C217"/>
<circle cx="890.76" cy="691.722" r="3.52358" transform="rotate(90 890.76 691.722)" fill="#70C217"/>
<circle cx="890.76" cy="743.401" r="3.52358" transform="rotate(90 890.76 743.401)" fill="#70C217"/>
<circle cx="890.76" cy="795.08" r="3.52358" transform="rotate(90 890.76 795.08)" fill="#70C217"/>
<circle cx="890.76" cy="846.759" r="3.52358" transform="rotate(90 890.76 846.759)" fill="#70C217"/>
<circle cx="890.76" cy="898.438" r="3.52358" transform="rotate(90 890.76 898.438)" fill="#70C217"/>
<circle cx="839.08" cy="691.722" r="3.52358" transform="rotate(90 839.08 691.722)" fill="#70C217"/>
<circle cx="839.08" cy="743.401" r="3.52358" transform="rotate(90 839.08 743.401)" fill="#70C217"/>
<circle cx="839.08" cy="795.08" r="3.52358" transform="rotate(90 839.08 795.08)" fill="#70C217"/>
<circle cx="839.08" cy="846.759" r="3.52358" transform="rotate(90 839.08 846.759)" fill="#70C217"/>
<circle cx="839.08" cy="898.438" r="3.52358" transform="rotate(90 839.08 898.438)" fill="#70C217"/>
<circle cx="787.401" cy="691.722" r="3.52358" transform="rotate(90 787.401 691.722)" fill="#70C217"/>
<circle cx="787.401" cy="743.401" r="3.52358" transform="rotate(90 787.401 743.401)" fill="#70C217"/>
<circle cx="787.401" cy="795.08" r="3.52358" transform="rotate(90 787.401 795.08)" fill="#70C217"/>
<circle cx="787.401" cy="846.759" r="3.52358" transform="rotate(90 787.401 846.759)" fill="#70C217"/>
<circle cx="787.401" cy="898.438" r="3.52358" transform="rotate(90 787.401 898.438)" fill="#70C217"/>
<circle cx="735.722" cy="691.722" r="3.52358" transform="rotate(90 735.722 691.722)" fill="#70C217"/>
<circle cx="735.722" cy="743.401" r="3.52358" transform="rotate(90 735.722 743.401)" fill="#70C217"/>
<circle cx="735.722" cy="795.08" r="3.52358" transform="rotate(90 735.722 795.08)" fill="#70C217"/>
<circle cx="735.722" cy="846.759" r="3.52358" transform="rotate(90 735.722 846.759)" fill="#70C217"/>
<circle cx="735.722" cy="898.438" r="3.52358" transform="rotate(90 735.722 898.438)" fill="#70C217"/>
<circle cx="684.043" cy="691.722" r="3.52358" transform="rotate(90 684.043 691.722)" fill="#70C217"/>
<circle cx="684.043" cy="743.401" r="3.52358" transform="rotate(90 684.043 743.401)" fill="#70C217"/>
<circle cx="684.043" cy="795.08" r="3.52358" transform="rotate(90 684.043 795.08)" fill="#70C217"/>
<circle cx="684.043" cy="846.759" r="3.52358" transform="rotate(90 684.043 846.759)" fill="#70C217"/>
<circle cx="684.043" cy="898.438" r="3.52358" transform="rotate(90 684.043 898.438)" fill="#70C217"/>
<circle cx="632.364" cy="691.722" r="3.52358" transform="rotate(90 632.364 691.722)" fill="#70C217"/>
<circle cx="632.364" cy="743.401" r="3.52358" transform="rotate(90 632.364 743.401)" fill="#70C217"/>
<circle cx="632.364" cy="795.08" r="3.52358" transform="rotate(90 632.364 795.08)" fill="#70C217"/>
<circle cx="632.364" cy="846.759" r="3.52358" transform="rotate(90 632.364 846.759)" fill="#70C217"/>
<circle cx="632.364" cy="898.438" r="3.52358" transform="rotate(90 632.364 898.438)" fill="#70C217"/>
<circle cx="580.684" cy="691.722" r="3.52358" transform="rotate(90 580.684 691.722)" fill="#70C217"/>
<circle cx="580.684" cy="743.401" r="3.52358" transform="rotate(90 580.684 743.401)" fill="#70C217"/>
<circle cx="580.684" cy="795.08" r="3.52358" transform="rotate(90 580.684 795.08)" fill="#70C217"/>
<circle cx="580.684" cy="846.759" r="3.52358" transform="rotate(90 580.684 846.759)" fill="#70C217"/>
<circle cx="580.684" cy="898.438" r="3.52358" transform="rotate(90 580.684 898.438)" fill="#70C217"/>
<circle cx="529.005" cy="691.722" r="3.52358" transform="rotate(90 529.005 691.722)" fill="#70C217"/>
<circle cx="529.005" cy="743.401" r="3.52358" transform="rotate(90 529.005 743.401)" fill="#70C217"/>
<circle cx="529.005" cy="795.08" r="3.52358" transform="rotate(90 529.005 795.08)" fill="#70C217"/>
<circle cx="529.005" cy="846.759" r="3.52358" transform="rotate(90 529.005 846.759)" fill="#70C217"/>
<circle cx="529.005" cy="898.438" r="3.52358" transform="rotate(90 529.005 898.438)" fill="#70C217"/>
<circle cx="477.326" cy="691.722" r="3.52358" transform="rotate(90 477.326 691.722)" fill="#70C217"/>
<circle cx="477.326" cy="743.401" r="3.52358" transform="rotate(90 477.326 743.401)" fill="#70C217"/>
<circle cx="477.326" cy="795.08" r="3.52358" transform="rotate(90 477.326 795.08)" fill="#70C217"/>
<circle cx="477.326" cy="846.759" r="3.52358" transform="rotate(90 477.326 846.759)" fill="#70C217"/>
<circle cx="477.326" cy="898.438" r="3.52358" transform="rotate(90 477.326 898.438)" fill="#70C217"/>
<circle cx="1448.64" cy="410.524" r="3.52358" transform="rotate(90 1448.64 410.524)" fill="#EF4358"/>
<circle cx="1448.64" cy="462.203" r="3.52358" transform="rotate(90 1448.64 462.203)" fill="#EF4358"/>
<circle cx="1448.64" cy="513.882" r="3.52358" transform="rotate(90 1448.64 513.882)" fill="#EF4358"/>
<circle cx="1448.64" cy="565.561" r="3.52358" transform="rotate(90 1448.64 565.561)" fill="#EF4358"/>
<circle cx="1448.64" cy="617.24" r="3.52358" transform="rotate(90 1448.64 617.24)" fill="#EF4358"/>
<circle cx="1396.96" cy="410.524" r="3.52358" transform="rotate(90 1396.96 410.524)" fill="#EF4358"/>
<circle cx="1396.96" cy="462.203" r="3.52358" transform="rotate(90 1396.96 462.203)" fill="#EF4358"/>
<circle cx="1396.96" cy="513.882" r="3.52358" transform="rotate(90 1396.96 513.882)" fill="#EF4358"/>
<circle cx="1396.96" cy="565.561" r="3.52358" transform="rotate(90 1396.96 565.561)" fill="#EF4358"/>
<circle cx="1396.96" cy="617.24" r="3.52358" transform="rotate(90 1396.96 617.24)" fill="#EF4358"/>
<circle cx="1345.28" cy="410.524" r="3.52358" transform="rotate(90 1345.28 410.524)" fill="#EF4358"/>
<circle cx="1345.28" cy="462.203" r="3.52358" transform="rotate(90 1345.28 462.203)" fill="#EF4358"/>
<circle cx="1345.28" cy="513.882" r="3.52358" transform="rotate(90 1345.28 513.882)" fill="#EF4358"/>
<circle cx="1345.28" cy="565.561" r="3.52358" transform="rotate(90 1345.28 565.561)" fill="#EF4358"/>
<circle cx="1345.28" cy="617.24" r="3.52358" transform="rotate(90 1345.28 617.24)" fill="#EF4358"/>
<circle cx="1293.6" cy="410.524" r="3.52358" transform="rotate(90 1293.6 410.524)" fill="#EF4358"/>
<circle cx="1293.6" cy="462.203" r="3.52358" transform="rotate(90 1293.6 462.203)" fill="#EF4358"/>
<circle cx="1293.6" cy="513.882" r="3.52358" transform="rotate(90 1293.6 513.882)" fill="#EF4358"/>
<circle cx="1293.6" cy="565.561" r="3.52358" transform="rotate(90 1293.6 565.561)" fill="#EF4358"/>
<circle cx="1293.6" cy="617.24" r="3.52358" transform="rotate(90 1293.6 617.24)" fill="#EF4358"/>
<circle cx="1241.92" cy="410.524" r="3.52358" transform="rotate(90 1241.92 410.524)" fill="#EF4358"/>
<circle cx="1241.92" cy="462.203" r="3.52358" transform="rotate(90 1241.92 462.203)" fill="#EF4358"/>
<circle cx="1241.92" cy="513.882" r="3.52358" transform="rotate(90 1241.92 513.882)" fill="#EF4358"/>
<circle cx="1241.92" cy="565.561" r="3.52358" transform="rotate(90 1241.92 565.561)" fill="#EF4358"/>
<circle cx="1241.92" cy="617.24" r="3.52358" transform="rotate(90 1241.92 617.24)" fill="#EF4358"/>
<circle cx="1190.24" cy="410.524" r="3.52358" transform="rotate(90 1190.24 410.524)" fill="#EF4358"/>
<circle cx="1190.24" cy="462.203" r="3.52358" transform="rotate(90 1190.24 462.203)" fill="#EF4358"/>
<circle cx="1190.24" cy="513.882" r="3.52358" transform="rotate(90 1190.24 513.882)" fill="#EF4358"/>
<circle cx="1190.24" cy="565.561" r="3.52358" transform="rotate(90 1190.24 565.561)" fill="#EF4358"/>
<circle cx="1190.24" cy="617.24" r="3.52358" transform="rotate(90 1190.24 617.24)" fill="#EF4358"/>
<circle cx="1138.56" cy="410.524" r="3.52358" transform="rotate(90 1138.56 410.524)" fill="#EF4358"/>
<circle cx="1138.56" cy="462.203" r="3.52358" transform="rotate(90 1138.56 462.203)" fill="#EF4358"/>
<circle cx="1138.56" cy="513.882" r="3.52358" transform="rotate(90 1138.56 513.882)" fill="#EF4358"/>
<circle cx="1138.56" cy="565.561" r="3.52358" transform="rotate(90 1138.56 565.561)" fill="#EF4358"/>
<circle cx="1138.56" cy="617.24" r="3.52358" transform="rotate(90 1138.56 617.24)" fill="#EF4358"/>
<circle cx="1086.88" cy="410.524" r="3.52358" transform="rotate(90 1086.88 410.524)" fill="#EF4358"/>
<circle cx="1086.88" cy="462.203" r="3.52358" transform="rotate(90 1086.88 462.203)" fill="#EF4358"/>
<circle cx="1086.88" cy="513.882" r="3.52358" transform="rotate(90 1086.88 513.882)" fill="#EF4358"/>
<circle cx="1086.88" cy="565.561" r="3.52358" transform="rotate(90 1086.88 565.561)" fill="#EF4358"/>
<circle cx="1086.88" cy="617.24" r="3.52358" transform="rotate(90 1086.88 617.24)" fill="#EF4358"/>
<circle cx="1035.2" cy="410.524" r="3.52358" transform="rotate(90 1035.2 410.524)" fill="#EF4358"/>
<circle cx="1035.2" cy="462.203" r="3.52358" transform="rotate(90 1035.2 462.203)" fill="#EF4358"/>
<circle cx="1035.2" cy="513.882" r="3.52358" transform="rotate(90 1035.2 513.882)" fill="#EF4358"/>
<circle cx="1035.2" cy="565.561" r="3.52358" transform="rotate(90 1035.2 565.561)" fill="#EF4358"/>
<circle cx="1035.2" cy="617.24" r="3.52358" transform="rotate(90 1035.2 617.24)" fill="#EF4358"/>
<circle cx="983.524" cy="410.524" r="3.52358" transform="rotate(90 983.524 410.524)" fill="#EF4358"/>
<circle cx="983.524" cy="462.203" r="3.52358" transform="rotate(90 983.524 462.203)" fill="#EF4358"/>
<circle cx="983.524" cy="513.882" r="3.52358" transform="rotate(90 983.524 513.882)" fill="#EF4358"/>
<circle cx="983.524" cy="565.561" r="3.52358" transform="rotate(90 983.524 565.561)" fill="#EF4358"/>
<circle cx="983.524" cy="617.24" r="3.52358" transform="rotate(90 983.524 617.24)" fill="#EF4358"/>
<defs>
<linearGradient id="paint0_linear_17871_28" x1="960" y1="0" x2="960" y2="1209" gradientUnits="userSpaceOnUse">
<stop stop-color="#ECF0FD" stop-opacity="0"/>
<stop offset="0.14324" stop-color="#ECF0FD" stop-opacity="0.53"/>
<stop offset="0.458333" stop-color="#ECF0FD"/>
<stop offset="0.843325" stop-color="#ECF0FD" stop-opacity="0.43"/>
<stop offset="1" stop-color="#ECF0FD" stop-opacity="0"/>
</linearGradient>
</defs>
</svg>
